<svg width="85" height="60" viewBox="0 0 85 60" fill="none" xmlns="http://www.w3.org/2000/svg">
<path fill-rule="evenodd" clip-rule="evenodd" d="M30 0H48V60H30H4C1.79086 60 0 58.2091 0 56V30C0 13.4315 13.4315 0 30 0ZM30 40C35.5228 40 40 35.5228 40 30C40 24.4772 35.5228 20 30 20C24.4772 20 20 24.4772 20 30C20 35.5228 24.4772 40 30 40Z" fill="white"/>
<path fill-rule="evenodd" clip-rule="evenodd" d="M50 0H55C71.2339 0 84.4562 12.8944 84.9836 29H50V0Z" fill="white"/>
<path fill-rule="evenodd" clip-rule="evenodd" d="M50 60V31H79.9836C79.4562 47.1056 66.2339 60 50 60Z" fill="white"/>
</svg>
