<svg width="97" height="100" viewBox="0 0 97 100" fill="none" xmlns="http://www.w3.org/2000/svg">
<path fill-rule="evenodd" clip-rule="evenodd" d="M34.1 0H54.56V68.2H34.1H4C1.79086 68.2 0 66.4091 0 64.2V34.1C0 15.2671 15.2671 0 34.1 0ZM34.101 45.4658C40.3787 45.4658 45.4677 40.3767 45.4677 34.0991C45.4677 27.8215 40.3787 22.7324 34.101 22.7324C27.8234 22.7324 22.7344 27.8215 22.7344 34.0991C22.7344 40.3767 27.8234 45.4658 34.101 45.4658Z" fill="white"/>
<path fill-rule="evenodd" clip-rule="evenodd" d="M56.8359 0H62.5193V32.9633H56.8359V0ZM62.5214 34.1V34.1004H96.6203V34.3705C96.621 34.2808 96.6214 34.191 96.6214 34.1012C96.6214 33.9391 96.6202 33.7773 96.618 33.6158V34.1H62.5214ZM96.6027 32.9633C96.0025 14.6572 80.9735 0.00117597 62.5214 0.00117597V32.9633H96.6027Z" fill="white"/>
<path fill-rule="evenodd" clip-rule="evenodd" d="M56.8379 35.2361V68.1998C75.2906 68.1998 90.3199 53.543 90.9193 35.2361H56.8379ZM90.9379 34.0994C90.9379 33.9991 90.9375 33.8989 90.9366 33.7988V34.0994H90.9379Z" fill="white"/>
<path d="M13.6238 99.8793C11.5155 99.8793 9.53995 99.4809 7.69724 98.684C7.49803 98.601 7.33202 98.4682 7.19921 98.2856C7.0664 98.0864 7 97.8789 7 97.663C7 97.3808 7.09131 97.1401 7.27392 96.9409C7.47313 96.7251 7.72214 96.6172 8.02096 96.6172C8.18697 96.6172 8.34468 96.6504 8.49409 96.7168C10.0214 97.3974 11.6566 97.7378 13.3997 97.7378C16.3049 97.7378 17.7575 96.7832 17.7575 94.8741C17.7575 94.376 17.5665 93.961 17.1847 93.629C16.8195 93.297 16.363 93.0397 15.8151 92.8571C15.2673 92.6578 14.4871 92.4254 13.4744 92.1598C12.1297 91.8112 11.0423 91.4792 10.2123 91.1638C9.38224 90.8317 8.6684 90.342 8.07076 89.6946C7.47313 89.0471 7.17431 88.1839 7.17431 87.1048C7.17431 86.1586 7.42333 85.3036 7.92136 84.54C8.41939 83.7597 9.14983 83.1455 10.1127 82.6972C11.0921 82.2324 12.2625 82 13.6238 82C15.4499 82 17.1017 82.2739 18.5792 82.8217C19.044 82.9878 19.2764 83.3198 19.2764 83.8178C19.2764 84.0834 19.1851 84.3241 19.0025 84.54C18.8199 84.7558 18.5792 84.8637 18.2804 84.8637C18.1808 84.8637 18.048 84.8305 17.882 84.7641C16.5871 84.3158 15.2507 84.0917 13.8728 84.0917C12.5613 84.0917 11.4906 84.3407 10.6605 84.8388C9.84707 85.3368 9.44035 86.034 9.44035 86.9305C9.44035 87.5281 9.63126 88.0179 10.0131 88.3997C10.4115 88.7649 10.9012 89.0554 11.4823 89.2712C12.0799 89.4705 12.8851 89.6863 13.8977 89.9187C15.2092 90.2341 16.2634 90.5495 17.0602 90.8649C17.8737 91.1804 18.5626 91.6701 19.127 92.3341C19.7081 92.9982 19.9986 93.8946 19.9986 95.0235C19.9986 95.9531 19.733 96.7915 19.2017 97.5385C18.6705 98.269 17.9235 98.8417 16.9606 99.2567C15.9977 99.6718 14.8855 99.8793 13.6238 99.8793Z" fill="white"/>
<path d="M27.384 99.8793C24.9602 99.8793 23.7483 98.7836 23.7483 96.5923V88.8728H21.9803C21.8475 88.8728 21.7313 88.8313 21.6317 88.7483C21.5487 88.6487 21.5072 88.5325 21.5072 88.3997C21.5072 88.2337 21.5819 88.0926 21.7313 87.9764L25.1179 84.6645C25.2673 84.5151 25.4084 84.4403 25.5412 84.4403C25.6741 84.4403 25.782 84.4901 25.865 84.5898C25.9646 84.6894 26.0144 84.8056 26.0144 84.9384V86.9305H28.8282C29.1105 86.9305 29.3429 87.0218 29.5255 87.2044C29.7081 87.387 29.7994 87.6194 29.7994 87.9017C29.7994 88.1673 29.7081 88.3997 29.5255 88.5989C29.3429 88.7815 29.1105 88.8728 28.8282 88.8728H26.0144V96.3931C26.0144 97.0405 26.1638 97.4555 26.4626 97.6381C26.778 97.8042 27.1681 97.8872 27.633 97.8872C27.965 97.8872 28.297 97.8374 28.629 97.7378C28.6954 97.7212 28.7618 97.7045 28.8282 97.6879C28.9112 97.6713 29.0109 97.663 29.1271 97.663C29.3595 97.663 29.567 97.7544 29.7496 97.937C29.9322 98.103 30.0235 98.3105 30.0235 98.5595C30.0235 98.9413 29.8326 99.2318 29.4508 99.4311C28.8033 99.7299 28.1144 99.8793 27.384 99.8793Z" fill="white"/>
<path d="M38.461 99.8793C37.1827 99.8793 36.0621 99.6054 35.0993 99.0575C34.1364 98.5097 33.3894 97.7378 32.8581 96.7417C32.3435 95.729 32.0862 94.5753 32.0862 93.2804C32.0862 91.9855 32.3435 90.84 32.8581 89.844C33.3894 88.8313 34.1364 88.0511 35.0993 87.5032C36.0621 86.9554 37.1827 86.6815 38.461 86.6815C39.7227 86.6815 40.8349 86.9554 41.7978 87.5032C42.7606 88.0511 43.5077 88.8313 44.0389 89.844C44.5701 90.84 44.8358 91.9855 44.8358 93.2804C44.8358 94.5753 44.5701 95.729 44.0389 96.7417C43.5077 97.7378 42.7606 98.5097 41.7978 99.0575C40.8349 99.6054 39.7227 99.8793 38.461 99.8793ZM38.461 97.8125C39.1416 97.8125 39.7891 97.6547 40.4033 97.3393C41.0341 97.0239 41.5488 96.5259 41.9472 95.8452C42.3622 95.1646 42.5697 94.3013 42.5697 93.2555C42.5697 92.2262 42.3622 91.3713 41.9472 90.6906C41.5488 90.01 41.0341 89.5203 40.4033 89.2214C39.7891 88.906 39.1416 88.7483 38.461 88.7483C37.7637 88.7483 37.0997 88.906 36.4689 89.2214C35.8546 89.5203 35.3483 90.01 34.9499 90.6906C34.5514 91.3713 34.3522 92.2262 34.3522 93.2555C34.3522 94.3013 34.5514 95.1646 34.9499 95.8452C35.3483 96.5259 35.8546 97.0239 36.4689 97.3393C37.0997 97.6547 37.7637 97.8125 38.461 97.8125Z" fill="white"/>
<path d="M53.611 99.8793C52.3327 99.8793 51.2122 99.6054 50.2493 99.0575C49.2865 98.5097 48.5394 97.7378 48.0082 96.7417C47.4935 95.729 47.2362 94.5753 47.2362 93.2804C47.2362 91.9855 47.4935 90.84 48.0082 89.844C48.5394 88.8313 49.2865 88.0511 50.2493 87.5032C51.2122 86.9554 52.3327 86.6815 53.611 86.6815C54.8727 86.6815 55.985 86.9554 56.9478 87.5032C57.9107 88.0511 58.6577 88.8313 59.189 89.844C59.7202 90.84 59.9858 91.9855 59.9858 93.2804C59.9858 94.5753 59.7202 95.729 59.189 96.7417C58.6577 97.7378 57.9107 98.5097 56.9478 99.0575C55.985 99.6054 54.8727 99.8793 53.611 99.8793ZM53.611 97.8125C54.2917 97.8125 54.9391 97.6547 55.5533 97.3393C56.1842 97.0239 56.6988 96.5259 57.0972 95.8452C57.5123 95.1646 57.7198 94.3013 57.7198 93.2555C57.7198 92.2262 57.5123 91.3713 57.0972 90.6906C56.6988 90.01 56.1842 89.5203 55.5533 89.2214C54.9391 88.906 54.2917 88.7483 53.611 88.7483C52.9138 88.7483 52.2497 88.906 51.6189 89.2214C51.0047 89.5203 50.4983 90.01 50.0999 90.6906C49.7015 91.3713 49.5023 92.2262 49.5023 93.2555C49.5023 94.3013 49.7015 95.1646 50.0999 95.8452C50.4983 96.5259 51.0047 97.0239 51.6189 97.3393C52.2497 97.6547 52.9138 97.8125 53.611 97.8125Z" fill="white"/>
<path d="M67.4952 99.7548C67.1963 99.7548 66.9224 99.6718 66.6734 99.5058C66.4244 99.3231 66.2418 99.099 66.1256 98.8334L61.7927 88.4744C61.7097 88.2752 61.6682 88.1009 61.6682 87.9515C61.6682 87.636 61.7761 87.3704 61.9919 87.1546C62.2077 86.9222 62.4734 86.806 62.7888 86.806C63.0046 86.806 63.2038 86.8724 63.3864 87.0052C63.5856 87.1214 63.7267 87.2708 63.8097 87.4534L67.6197 97.1152L71.4296 87.4534C71.5126 87.2708 71.6454 87.1214 71.828 87.0052C72.0272 86.8724 72.2347 86.806 72.4506 86.806C72.766 86.806 73.0316 86.9222 73.2474 87.1546C73.4632 87.3704 73.5711 87.636 73.5711 87.9515C73.5711 88.1009 73.5296 88.2752 73.4466 88.4744L69.1138 98.8334C68.9976 99.099 68.8149 99.3231 68.5659 99.5058C68.3169 99.6718 68.043 99.7548 67.7442 99.7548H67.4952Z" fill="white"/>
<path d="M81.6252 99.8793C80.3469 99.8793 79.2264 99.6054 78.2635 99.0575C77.3006 98.5097 76.5536 97.7378 76.0224 96.7417C75.5077 95.729 75.2504 94.5753 75.2504 93.2804C75.2504 91.9855 75.5077 90.84 76.0224 89.844C76.5536 88.8313 77.3006 88.0511 78.2635 87.5032C79.2264 86.9554 80.3469 86.6815 81.6252 86.6815C82.8869 86.6815 83.9992 86.9554 84.962 87.5032C85.9249 88.0511 86.6719 88.8313 87.2031 89.844C87.7344 90.84 88 91.9855 88 93.2804C88 94.5753 87.7344 95.729 87.2031 96.7417C86.6719 97.7378 85.9249 98.5097 84.962 99.0575C83.9992 99.6054 82.8869 99.8793 81.6252 99.8793ZM81.6252 97.8125C82.3058 97.8125 82.9533 97.6547 83.5675 97.3393C84.1984 97.0239 84.713 96.5259 85.1114 95.8452C85.5264 95.1646 85.734 94.3013 85.734 93.2555C85.734 92.2262 85.5264 91.3713 85.1114 90.6906C84.713 90.01 84.1984 89.5203 83.5675 89.2214C82.9533 88.906 82.3058 88.7483 81.6252 88.7483C80.928 88.7483 80.2639 88.906 79.6331 89.2214C79.0189 89.5203 78.5125 90.01 78.1141 90.6906C77.7157 91.3713 77.5165 92.2262 77.5165 93.2555C77.5165 94.3013 77.7157 95.1646 78.1141 95.8452C78.5125 96.5259 79.0189 97.0239 79.6331 97.3393C80.2639 97.6547 80.928 97.8125 81.6252 97.8125Z" fill="white"/>
</svg>
