<svg width="272" height="60" viewBox="0 0 272 60" fill="none" xmlns="http://www.w3.org/2000/svg">
<path fill-rule="evenodd" clip-rule="evenodd" d="M60 30C60 38.885 56.1375 46.8679 50 52.3611V60H30H4C1.79086 60 0 58.2091 0 56V30C0 13.4315 13.4315 0 30 0H50V7.63894C56.1375 13.1321 60 21.115 60 30Z" fill="#00BAFF"/>
<circle cx="30" cy="30" r="10" fill="white"/>
<path fill-rule="evenodd" clip-rule="evenodd" d="M50 30V60C66.5685 60 80 46.5685 80 30H50Z" fill="url(#paint0_linear_10631_18)"/>
<path fill-rule="evenodd" clip-rule="evenodd" d="M55 0H50V30H55H85C85 13.4315 71.5685 0 55 0Z" fill="url(#paint1_linear_10631_18)"/>
<path d="M128.215 48.4796C124.151 48.4796 120.343 47.7116 116.791 46.1756C116.407 46.0156 116.087 45.7596 115.831 45.4076C115.575 45.0236 115.447 44.6236 115.447 44.2076C115.447 43.6636 115.623 43.1996 115.975 42.8156C116.359 42.3996 116.839 42.1916 117.415 42.1916C117.735 42.1916 118.039 42.2556 118.327 42.3836C121.271 43.6956 124.423 44.3516 127.783 44.3516C133.383 44.3516 136.183 42.5116 136.183 38.8316C136.183 37.8716 135.815 37.0716 135.079 36.4316C134.375 35.7916 133.495 35.2956 132.439 34.9436C131.383 34.5596 129.879 34.1116 127.927 33.5996C125.335 32.9276 123.239 32.2876 121.639 31.6796C120.039 31.0396 118.663 30.0956 117.511 28.8476C116.359 27.5996 115.783 25.9356 115.783 23.8556C115.783 22.0316 116.263 20.3836 117.223 18.9116C118.183 17.4076 119.591 16.2236 121.447 15.3596C123.335 14.4636 125.591 14.0156 128.215 14.0156C131.735 14.0156 134.919 14.5436 137.767 15.5996C138.663 15.9196 139.111 16.5596 139.111 17.5196C139.111 18.0316 138.935 18.4956 138.583 18.9116C138.231 19.3276 137.767 19.5356 137.191 19.5356C136.999 19.5356 136.743 19.4716 136.423 19.3436C133.927 18.4796 131.351 18.0476 128.695 18.0476C126.167 18.0476 124.103 18.5276 122.503 19.4876C120.935 20.4476 120.151 21.7916 120.151 23.5196C120.151 24.6716 120.519 25.6156 121.255 26.3516C122.023 27.0556 122.967 27.6156 124.087 28.0316C125.239 28.4156 126.791 28.8316 128.743 29.2796C131.271 29.8876 133.303 30.4956 134.839 31.1036C136.407 31.7116 137.735 32.6556 138.823 33.9356C139.943 35.2156 140.503 36.9436 140.503 39.1196C140.503 40.9116 139.991 42.5276 138.967 43.9676C137.943 45.3756 136.503 46.4796 134.647 47.2796C132.791 48.0796 130.647 48.4796 128.215 48.4796Z" fill="#071146"/>
<path d="M154.739 48.4796C150.067 48.4796 147.731 46.3676 147.731 42.1436V27.2636H144.323C144.067 27.2636 143.843 27.1836 143.651 27.0236C143.491 26.8316 143.411 26.6076 143.411 26.3516C143.411 26.0316 143.555 25.7596 143.843 25.5356L150.371 19.1516C150.659 18.8636 150.931 18.7196 151.187 18.7196C151.443 18.7196 151.651 18.8156 151.811 19.0076C152.003 19.1996 152.099 19.4236 152.099 19.6796V23.5196H157.523C158.067 23.5196 158.515 23.6956 158.867 24.0476C159.219 24.3996 159.395 24.8476 159.395 25.3916C159.395 25.9036 159.219 26.3516 158.867 26.7356C158.515 27.0876 158.067 27.2636 157.523 27.2636H152.099V41.7596C152.099 43.0076 152.387 43.8076 152.963 44.1596C153.571 44.4796 154.323 44.6396 155.219 44.6396C155.859 44.6396 156.499 44.5436 157.139 44.3516C157.267 44.3196 157.395 44.2876 157.523 44.2556C157.683 44.2236 157.875 44.2076 158.099 44.2076C158.547 44.2076 158.947 44.3836 159.299 44.7356C159.651 45.0556 159.827 45.4556 159.827 45.9356C159.827 46.6716 159.459 47.2316 158.723 47.6156C157.475 48.1916 156.147 48.4796 154.739 48.4796Z" fill="#071146"/>
<path d="M176.091 48.4796C173.627 48.4796 171.467 47.9516 169.611 46.8956C167.755 45.8396 166.315 44.3516 165.291 42.4316C164.299 40.4796 163.803 38.2556 163.803 35.7596C163.803 33.2636 164.299 31.0556 165.291 29.1356C166.315 27.1836 167.755 25.6796 169.611 24.6236C171.467 23.5676 173.627 23.0396 176.091 23.0396C178.523 23.0396 180.667 23.5676 182.523 24.6236C184.379 25.6796 185.819 27.1836 186.843 29.1356C187.867 31.0556 188.379 33.2636 188.379 35.7596C188.379 38.2556 187.867 40.4796 186.843 42.4316C185.819 44.3516 184.379 45.8396 182.523 46.8956C180.667 47.9516 178.523 48.4796 176.091 48.4796ZM176.091 44.4956C177.403 44.4956 178.651 44.1916 179.835 43.5836C181.051 42.9756 182.043 42.0156 182.811 40.7036C183.611 39.3916 184.011 37.7276 184.011 35.7116C184.011 33.7276 183.611 32.0796 182.811 30.7676C182.043 29.4556 181.051 28.5116 179.835 27.9356C178.651 27.3276 177.403 27.0236 176.091 27.0236C174.747 27.0236 173.467 27.3276 172.251 27.9356C171.067 28.5116 170.091 29.4556 169.323 30.7676C168.555 32.0796 168.171 33.7276 168.171 35.7116C168.171 37.7276 168.555 39.3916 169.323 40.7036C170.091 42.0156 171.067 42.9756 172.251 43.5836C173.467 44.1916 174.747 44.4956 176.091 44.4956Z" fill="#071146"/>
<path d="M205.294 48.4796C202.83 48.4796 200.67 47.9516 198.814 46.8956C196.958 45.8396 195.518 44.3516 194.494 42.4316C193.502 40.4796 193.006 38.2556 193.006 35.7596C193.006 33.2636 193.502 31.0556 194.494 29.1356C195.518 27.1836 196.958 25.6796 198.814 24.6236C200.67 23.5676 202.83 23.0396 205.294 23.0396C207.726 23.0396 209.87 23.5676 211.726 24.6236C213.582 25.6796 215.022 27.1836 216.046 29.1356C217.07 31.0556 217.582 33.2636 217.582 35.7596C217.582 38.2556 217.07 40.4796 216.046 42.4316C215.022 44.3516 213.582 45.8396 211.726 46.8956C209.87 47.9516 207.726 48.4796 205.294 48.4796ZM205.294 44.4956C206.606 44.4956 207.854 44.1916 209.038 43.5836C210.254 42.9756 211.246 42.0156 212.014 40.7036C212.814 39.3916 213.214 37.7276 213.214 35.7116C213.214 33.7276 212.814 32.0796 212.014 30.7676C211.246 29.4556 210.254 28.5116 209.038 27.9356C207.854 27.3276 206.606 27.0236 205.294 27.0236C203.95 27.0236 202.67 27.3276 201.454 27.9356C200.27 28.5116 199.294 29.4556 198.526 30.7676C197.758 32.0796 197.374 33.7276 197.374 35.7116C197.374 37.7276 197.758 39.3916 198.526 40.7036C199.294 42.0156 200.27 42.9756 201.454 43.5836C202.67 44.1916 203.95 44.4956 205.294 44.4956Z" fill="#071146"/>
<path d="M232.057 48.2396C231.481 48.2396 230.953 48.0796 230.473 47.7596C229.993 47.4076 229.641 46.9756 229.417 46.4636L221.065 26.4956C220.905 26.1116 220.825 25.7756 220.825 25.4876C220.825 24.8796 221.033 24.3676 221.449 23.9516C221.865 23.5036 222.377 23.2796 222.985 23.2796C223.401 23.2796 223.785 23.4076 224.137 23.6636C224.521 23.8876 224.793 24.1756 224.953 24.5276L232.297 43.1516L239.641 24.5276C239.801 24.1756 240.057 23.8876 240.409 23.6636C240.793 23.4076 241.193 23.2796 241.609 23.2796C242.217 23.2796 242.729 23.5036 243.145 23.9516C243.561 24.3676 243.769 24.8796 243.769 25.4876C243.769 25.7756 243.689 26.1116 243.529 26.4956L235.177 46.4636C234.953 46.9756 234.601 47.4076 234.121 47.7596C233.641 48.0796 233.113 48.2396 232.537 48.2396H232.057Z" fill="#071146"/>
<path d="M259.294 48.4796C256.83 48.4796 254.67 47.9516 252.814 46.8956C250.958 45.8396 249.518 44.3516 248.494 42.4316C247.502 40.4796 247.006 38.2556 247.006 35.7596C247.006 33.2636 247.502 31.0556 248.494 29.1356C249.518 27.1836 250.958 25.6796 252.814 24.6236C254.67 23.5676 256.83 23.0396 259.294 23.0396C261.726 23.0396 263.87 23.5676 265.726 24.6236C267.582 25.6796 269.022 27.1836 270.046 29.1356C271.07 31.0556 271.582 33.2636 271.582 35.7596C271.582 38.2556 271.07 40.4796 270.046 42.4316C269.022 44.3516 267.582 45.8396 265.726 46.8956C263.87 47.9516 261.726 48.4796 259.294 48.4796ZM259.294 44.4956C260.606 44.4956 261.854 44.1916 263.038 43.5836C264.254 42.9756 265.246 42.0156 266.014 40.7036C266.814 39.3916 267.214 37.7276 267.214 35.7116C267.214 33.7276 266.814 32.0796 266.014 30.7676C265.246 29.4556 264.254 28.5116 263.038 27.9356C261.854 27.3276 260.606 27.0236 259.294 27.0236C257.95 27.0236 256.67 27.3276 255.454 27.9356C254.27 28.5116 253.294 29.4556 252.526 30.7676C251.758 32.0796 251.374 33.7276 251.374 35.7116C251.374 37.7276 251.758 39.3916 252.526 40.7036C253.294 42.0156 254.27 42.9756 255.454 43.5836C256.67 44.1916 257.95 44.4956 259.294 44.4956Z" fill="#071146"/>
<defs>
<linearGradient id="paint0_linear_10631_18" x1="82.1781" y1="50.1073" x2="71.7121" y2="23.9473" gradientUnits="userSpaceOnUse">
<stop offset="0.00042483" stop-color="#F9A61C"/>
<stop offset="1" stop-color="#FCCD37"/>
</linearGradient>
<linearGradient id="paint1_linear_10631_18" x1="94.5267" y1="25.237" x2="75.7736" y2="-12.6581" gradientUnits="userSpaceOnUse">
<stop offset="0.00042483" stop-color="#FCE280"/>
<stop offset="1" stop-color="#FCCD37"/>
</linearGradient>
</defs>
</svg>
